<svg width="162" height="67" viewBox="0 0 162 67" fill="none" xmlns="http://www.w3.org/2000/svg">
<path fill-rule="evenodd" clip-rule="evenodd" d="M49.031 24.783C52.682 28.757 60.647 25.158 58.062 19.861C56.336 16.305 53.75 17.13 51.904 18.041C48.208 19.82 47.509 23.088 49.031 24.783ZM43.105 22.002C45.481 26.868 38.168 30.173 34.813 26.523C33.415 24.968 34.058 21.963 37.449 20.33C39.146 19.494 41.522 18.734 43.105 22.002ZM158.936 50.374C157.715 50.5332 156.442 50.6425 155.221 50.7474L155.179 50.751V50.807C152.764 68.171 128.991 71.038 128.4 57.406C128.131 51.239 139.993 49.456 151.798 48.318C152.007 42.9112 148.233 44.1234 143.648 45.5959C138.829 47.1437 133.115 48.979 130.19 43.717C125.171 34.692 144.822 25.779 146.918 27.615C153.271 33.1766 150.4 34.2063 145.727 35.8824L145.539 35.95C136.049 39.36 139.748 40.057 141.028 39.676C148.597 37.423 155.394 38.636 155.34 47.993C155.955 47.9419 156.557 47.9025 157.154 47.8634L157.154 47.8634C157.807 47.8207 158.452 47.7784 159.097 47.722C161.403 47.507 161.564 50.157 158.936 50.374ZM151.422 51.13C142.298 52.158 134.409 53.566 135.269 56.485C136.985 62.058 148.846 63.303 151.422 51.13ZM118.79 34.23C117.975 39.88 117.996 45.881 118.678 45.918C119.012 45.937 120.982 45.572 121.617 44.411C122.226 43.2934 122.794 41.7543 123.388 40.141L123.388 40.1409L123.388 40.1409L123.388 40.1408L123.388 40.1407L123.388 40.1406L123.388 40.1405C124.586 36.8907 125.895 33.3397 127.883 32.324C130.725 30.873 119.795 27.279 118.79 34.23ZM29.883 62.666C21.964 68.004 15.664 66.825 17.671 51.818C19.121 40.914 16.723 40.297 14.549 42.376C11.704 45.073 9.921 52.099 9.865 58.788C10.1232 60.3951 10.4583 61.9889 10.869 63.564C11.203 65.194 5.962 66.879 2.895 64.575C1.837 63.79 1 55.865 1 45.131C1 36.307 2.171 30.236 3.23 29.956C11.259 27.765 12.542 31.304 10.813 37.937C10.1254 40.5343 9.65871 43.1851 9.418 45.861C11.091 41.197 13.489 37.376 16.221 35.688C23.637 31.024 29.826 33.215 28.655 42.489C26.648 59.069 26.481 61.316 28.265 60.024C30.496 58.45 31.945 61.262 29.883 62.666ZM42.766 65.142C48.176 65.761 53.807 64.074 55.982 60.59C57.821 57.667 56.316 56.655 54.197 59.015C49.737 64.131 45.109 61.826 43.158 56.655L43.66 56.487C53.082 52.721 58.992 42.493 55.257 36.704C50.126 28.723 34.069 35.86 32.061 47.045C30.221 57.386 35.016 64.299 42.766 65.142ZM42.377 53.172C48.232 49.013 50.183 39.852 48.566 37.267C46.838 34.57 43.492 38.784 42.321 49.013C42.21 50.474 42.21 51.878 42.377 53.172ZM78.125 51.051C80.188 50.376 82.494 48.499 84.091 45.992C84.538 45.289 84.914 44.657 85.43 43.012C85.3675 43.2111 85.3915 43.1204 85.4509 42.8953C85.5588 42.4863 85.7839 41.6335 85.82 41.271C85.82 41.215 85.876 40.932 85.932 40.822C87.157 33.965 82.921 30.086 77.065 33.009C73.776 34.638 69.706 40.822 67.253 47.51C67.866 43.912 68.925 40.484 70.096 37.111C72.103 31.154 68.368 28.119 61.956 29.862C60.896 30.143 58.945 37.955 58.945 46.779C58.945 57.513 59.503 63.695 60.562 64.483C63.628 66.843 69.092 65.101 68.535 63.527C68.3189 62.9291 68.1554 62.3284 67.9926 61.7303L67.977 61.673C67.977 61.504 67.977 61.335 67.922 61.167C66.861 54.196 70.933 44.532 74.278 41.946C75.17 41.215 76.396 41.721 76.564 43.632C73.832 44.981 72.94 47.342 72.94 48.353C72.94 51.107 75.727 51.781 78.125 51.051Z" fill="black"/>
<path d="M58.062 19.861L57.6122 20.0793L57.6127 20.0803L58.062 19.861ZM49.031 24.783L48.6589 25.1171L48.6628 25.1213L49.031 24.783ZM51.904 18.041L52.1209 18.4915L52.1253 18.4894L51.904 18.041ZM34.813 26.523L34.4412 26.8573L34.4449 26.8614L34.813 26.523ZM43.105 22.002L42.655 22.22L42.6557 22.2214L43.105 22.002ZM37.449 20.33L37.6659 20.7805L37.67 20.7785L37.449 20.33ZM155.221 50.7474L155.179 50.2492L155.179 50.2492L155.221 50.7474ZM158.936 50.374L158.895 49.8757L158.883 49.8767L158.871 49.8782L158.936 50.374ZM155.179 50.751L155.136 50.2528L154.679 50.2921V50.751H155.179ZM155.179 50.807L155.674 50.8759L155.679 50.8416V50.807H155.179ZM128.4 57.406L128.9 57.3843L128.9 57.3842L128.4 57.406ZM151.798 48.318L151.846 48.8157L152.281 48.7738L152.298 48.3373L151.798 48.318ZM143.648 45.5959L143.495 45.1199L143.495 45.1199L143.648 45.5959ZM130.19 43.717L130.627 43.4741L130.627 43.474L130.19 43.717ZM146.918 27.615L146.589 27.9911L146.589 27.9912L146.918 27.615ZM145.727 35.8824L145.559 35.4118L145.559 35.4118L145.727 35.8824ZM145.539 35.95L145.37 35.4794L145.37 35.4795L145.539 35.95ZM141.028 39.676L141.171 40.1552L141.171 40.1552L141.028 39.676ZM155.34 47.993L154.84 47.9901L154.837 48.5365L155.381 48.4913L155.34 47.993ZM157.154 47.8634L157.123 47.3644L157.121 47.3645L157.154 47.8634ZM157.154 47.8634L157.185 48.3624L157.187 48.3623L157.154 47.8634ZM159.097 47.722L159.141 48.2201L159.143 48.2198L159.097 47.722ZM151.422 51.13L151.911 51.2335L152.055 50.5556L151.366 50.6331L151.422 51.13ZM135.269 56.485L134.789 56.6263L134.791 56.6321L135.269 56.485ZM118.678 45.918L118.706 45.4188L118.705 45.4187L118.678 45.918ZM118.79 34.23L118.295 34.1585L118.295 34.1586L118.79 34.23ZM121.617 44.411L122.056 44.6509L122.056 44.6504L121.617 44.411ZM123.388 40.141L123.857 40.3139L123.86 40.3066L123.863 40.2991L123.388 40.141ZM123.388 40.1409L123.863 40.299L123.866 40.2879L123.388 40.1409ZM123.388 40.1407L122.928 39.9467L122.918 39.9698L122.911 39.9937L123.388 40.1407ZM123.388 40.1406L123.849 40.3346L123.855 40.3221L123.859 40.3092L123.388 40.1406ZM123.388 40.1405L122.919 39.9676L122.918 39.9719L123.388 40.1405ZM127.883 32.324L127.656 31.8787L127.656 31.8787L127.883 32.324ZM17.671 51.818L18.1666 51.8843L18.1666 51.8839L17.671 51.818ZM29.883 62.666L30.1625 63.0806L30.1644 63.0793L29.883 62.666ZM14.549 42.376L14.893 42.7389L14.8946 42.7374L14.549 42.376ZM9.865 58.788L9.36502 58.7838L9.36467 58.8258L9.37133 58.8673L9.865 58.788ZM10.869 63.564L11.3588 63.4636L11.3562 63.4507L11.3528 63.4378L10.869 63.564ZM2.895 64.575L3.19532 64.1752L3.19293 64.1735L2.895 64.575ZM3.23 29.956L3.35781 30.4394L3.36163 30.4384L3.23 29.956ZM10.813 37.937L11.2964 38.065L11.2968 38.0631L10.813 37.937ZM9.418 45.861L8.92001 45.8162L9.88864 46.0298L9.418 45.861ZM16.221 35.688L16.4838 36.1134L16.4872 36.1113L16.221 35.688ZM28.655 42.489L28.1589 42.4264L28.1586 42.4289L28.655 42.489ZM28.265 60.024L27.9767 59.6154L27.9717 59.619L28.265 60.024ZM55.982 60.59L55.5588 60.3237L55.5579 60.3252L55.982 60.59ZM42.766 65.142L42.8228 64.6452L42.8201 64.6449L42.766 65.142ZM54.197 59.015L53.8249 58.6809L53.8201 58.6864L54.197 59.015ZM43.158 56.655L42.9993 56.1808L42.5069 56.3456L42.6902 56.8315L43.158 56.655ZM43.66 56.487L43.8187 56.9612L43.8323 56.9566L43.8456 56.9513L43.66 56.487ZM55.257 36.704L54.8364 36.9744L54.8369 36.9751L55.257 36.704ZM32.061 47.045L31.5689 46.9566L31.5687 46.9574L32.061 47.045ZM48.566 37.267L48.9899 37.0018L48.987 36.9973L48.566 37.267ZM42.377 53.172L41.8811 53.236L41.9877 54.0618L42.6666 53.5796L42.377 53.172ZM42.321 49.013L41.8242 48.9561L41.8232 48.9656L41.8224 48.9751L42.321 49.013ZM84.091 45.992L84.5127 46.2606L84.5129 46.2603L84.091 45.992ZM78.125 51.051L78.2706 51.5294L78.2805 51.5262L78.125 51.051ZM85.43 43.012L85.9071 43.1616L84.9529 42.8623L85.43 43.012ZM85.4509 42.8953L84.9674 42.7677L84.9674 42.7677L85.4509 42.8953ZM85.82 41.271L86.3175 41.3206L86.32 41.2959V41.271H85.82ZM85.932 40.822L86.3776 41.0488L86.4112 40.9828L86.4242 40.9099L85.932 40.822ZM77.065 33.009L77.2869 33.4571L77.2883 33.4564L77.065 33.009ZM67.253 47.51L66.7601 47.426L67.7224 47.6822L67.253 47.51ZM70.096 37.111L70.5684 37.275L70.5698 37.2706L70.096 37.111ZM61.956 29.862L62.0841 30.3453L62.0872 30.3445L61.956 29.862ZM60.562 64.483L60.867 64.0867L60.8605 64.0819L60.562 64.483ZM68.535 63.527L69.0064 63.3602L69.0052 63.357L68.535 63.527ZM67.9926 61.7303L68.4751 61.599L68.475 61.5989L67.9926 61.7303ZM67.977 61.673H67.477V61.7399L67.4946 61.8044L67.977 61.673ZM67.922 61.167L67.4277 61.2422L67.4339 61.2832L67.4468 61.3226L67.922 61.167ZM74.278 41.946L74.5838 42.3416L74.5894 42.3372L74.5949 42.3327L74.278 41.946ZM76.564 43.632L76.7854 44.0803L77.092 43.9289L77.0621 43.5882L76.564 43.632ZM57.6127 20.0803C58.1996 21.283 58.1742 22.3486 57.7958 23.2255C57.4115 24.116 56.6412 24.8602 55.6609 25.3517C53.6827 26.3434 51.0369 26.2273 49.3992 24.4447L48.6628 25.1213C50.6761 27.3127 53.8383 27.3841 56.1091 26.2456C57.2533 25.6719 58.2178 24.7715 58.714 23.6217C59.2161 22.4581 59.2169 21.0875 58.5114 19.6417L57.6127 20.0803ZM52.1253 18.4894C53.038 18.0389 54.0326 17.6658 54.9715 17.7727C55.8546 17.8732 56.8046 18.4156 57.6122 20.0793L58.5118 19.6427C57.5934 17.7504 56.3874 16.9273 55.0845 16.7791C53.8374 16.6372 52.616 17.1321 51.6827 17.5926L52.1253 18.4894ZM49.403 24.4489C48.7833 23.7588 48.5868 22.718 48.9817 21.6115C49.376 20.5064 50.3683 19.3351 52.1209 18.4915L51.6872 17.5905C49.7437 18.5259 48.5385 19.8781 48.0398 21.2755C47.5417 22.6715 47.7567 24.1122 48.659 25.1171L49.403 24.4489ZM34.4449 26.8614C36.3101 28.8906 39.2352 28.9546 41.3323 27.9029C42.3896 27.3727 43.2829 26.5392 43.7427 25.4724C44.2084 24.3919 44.2076 23.1205 43.5543 21.7826L42.6557 22.2214C43.1904 23.3165 43.1665 24.2829 42.8244 25.0766C42.4764 25.884 41.7772 26.5611 40.884 27.0091C39.0798 27.9139 36.6709 27.8054 35.1811 26.1846L34.4449 26.8614ZM37.2321 19.8795C35.4408 20.7421 34.3261 21.9921 33.8642 23.2879C33.4028 24.582 33.6005 25.9222 34.4412 26.8573L35.1848 26.1887C34.6275 25.5688 34.4477 24.629 34.8061 23.6236C35.1639 22.6199 36.0662 21.5509 37.6659 20.7805L37.2321 19.8795ZM43.555 21.784C42.7081 20.0356 41.5903 19.268 40.3762 19.1302C39.2181 18.9987 38.0865 19.4586 37.228 19.8815L37.67 20.7785C38.5085 20.3654 39.4134 20.0273 40.2633 20.1238C41.0572 20.214 41.9189 20.7004 42.655 22.22L43.555 21.784ZM155.264 51.2455C156.483 51.1408 157.767 51.0306 159.001 50.8698L158.871 49.8782C157.663 50.0357 156.402 50.1441 155.179 50.2492L155.264 51.2455ZM155.222 51.2492L155.264 51.2455L155.179 50.2492L155.136 50.2528L155.222 51.2492ZM155.679 50.807V50.751H154.679V50.807H155.679ZM127.9 57.4277C128.055 61.0021 129.742 63.5348 132.241 64.9991C134.719 66.4511 137.95 66.8295 141.198 66.2215C147.695 65.0047 154.433 59.8018 155.674 50.8759L154.684 50.7381C153.51 59.1762 147.154 64.0888 141.013 65.2385C137.942 65.8138 134.968 65.4381 132.747 64.1363C130.546 62.8468 129.04 60.6259 128.9 57.3843L127.9 57.4277ZM151.75 47.8203C145.851 48.389 139.886 49.1225 135.424 50.4983C133.194 51.1857 131.295 52.0464 129.962 53.1607C128.613 54.288 127.825 55.6955 127.9 57.4278L128.9 57.3842C128.841 56.033 129.434 54.905 130.603 53.9279C131.787 52.9379 133.541 52.1254 135.719 51.4539C140.071 50.112 145.94 49.385 151.846 48.8157L151.75 47.8203ZM143.801 46.072C144.952 45.7023 146.028 45.357 147.001 45.1262C147.979 44.894 148.803 44.7904 149.458 44.8733C150.09 44.9533 150.536 45.2014 150.835 45.6727C151.153 46.172 151.349 46.9903 151.298 48.2987L152.298 48.3373C152.352 46.9423 152.155 45.8846 151.68 45.1366C151.187 44.3606 150.442 43.9899 149.584 43.8812C148.748 43.7754 147.782 43.913 146.77 44.1532C145.752 44.3948 144.637 44.7533 143.495 45.1199L143.801 46.072ZM129.753 43.9599C130.526 45.3506 131.498 46.2959 132.614 46.8896C133.726 47.4811 134.951 47.7073 136.208 47.7101C138.698 47.7158 141.411 46.8395 143.801 46.072L143.495 45.1199C141.066 45.9001 138.512 46.7153 136.21 46.7101C135.07 46.7075 134.016 46.5026 133.084 46.0067C132.155 45.5129 131.316 44.7144 130.627 43.4741L129.753 43.9599ZM147.247 27.2389C147.01 27.0313 146.698 26.9377 146.394 26.8983C146.081 26.8578 145.721 26.8674 145.333 26.913C144.556 27.0044 143.598 27.2491 142.549 27.6152C140.449 28.3483 137.913 29.5926 135.603 31.1811C133.298 32.7656 131.178 34.7204 129.956 36.8901C128.722 39.081 128.395 41.5184 129.753 43.96L130.627 43.474C129.475 41.4031 129.723 39.342 130.827 37.3808C131.944 35.3985 133.926 33.5475 136.169 32.0051C138.406 30.4668 140.863 29.263 142.879 28.5593C143.889 28.2069 144.771 27.986 145.45 27.9062C145.79 27.8662 146.062 27.8637 146.265 27.89C146.477 27.9173 146.564 27.9692 146.589 27.9911L147.247 27.2389ZM145.896 36.353C147.055 35.9375 148.143 35.5479 149.004 35.1116C149.852 34.6821 150.588 34.1554 150.916 33.4059C151.261 32.6153 151.091 31.7337 150.496 30.7572C149.905 29.7865 148.847 28.6392 147.247 27.2388L146.589 27.9912C148.165 29.3716 149.131 30.4387 149.642 31.2775C150.15 32.1107 150.162 32.6341 149.999 33.0056C149.819 33.4183 149.359 33.8109 148.552 34.2196C147.759 34.6216 146.737 34.9892 145.559 35.4118L145.896 36.353ZM145.708 36.4206L145.896 36.353L145.559 35.4118L145.37 35.4794L145.708 36.4206ZM140.885 39.1968C140.644 39.2687 140.251 39.2942 139.943 39.2413C139.786 39.2143 139.708 39.1761 139.686 39.16C139.679 39.1553 139.7 39.1689 139.719 39.2084C139.74 39.2534 139.741 39.2979 139.737 39.3249C139.731 39.3528 139.738 39.2785 139.937 39.1005C140.123 38.9343 140.426 38.7215 140.894 38.4612C141.827 37.9417 143.346 37.2694 145.708 36.4205L145.37 35.4795C142.987 36.3356 141.41 37.0292 140.407 37.5875C139.907 37.8661 139.533 38.1203 139.27 38.3554C139.021 38.5786 138.809 38.84 138.753 39.1443C138.685 39.5143 138.867 39.8002 139.095 39.9673C139.298 40.1155 139.552 40.1888 139.774 40.2269C140.223 40.3041 140.772 40.2738 141.171 40.1552L140.885 39.1968ZM155.84 47.9959C155.854 45.5988 155.429 43.6804 154.632 42.1928C153.83 40.6981 152.664 39.6643 151.248 39.025C148.444 37.7589 144.707 38.0592 140.885 39.1968L141.171 40.1552C144.918 39.0398 148.364 38.8201 150.837 39.9365C152.059 40.4884 153.056 41.3715 153.75 42.6655C154.448 43.9666 154.853 45.7087 154.84 47.9901L155.84 47.9959ZM157.121 47.3645C156.525 47.4035 155.919 47.4432 155.299 47.4947L155.381 48.4913C155.991 48.4406 156.589 48.4014 157.186 48.3623L157.121 47.3645ZM157.123 47.3644L157.123 47.3644L157.185 48.3624L157.185 48.3624L157.123 47.3644ZM159.053 47.2239C158.415 47.2798 157.775 47.3217 157.122 47.3645L157.187 48.3623C157.839 48.3196 158.489 48.2771 159.141 48.2201L159.053 47.2239ZM158.977 50.8723C160.442 50.7513 161.367 49.905 161.367 48.886C161.367 48.392 161.134 47.927 160.712 47.6138C160.294 47.3027 159.72 47.1617 159.051 47.2242L159.143 48.2198C159.627 48.1748 159.938 48.2844 160.116 48.4165C160.291 48.5465 160.367 48.7172 160.367 48.886C160.367 49.1925 160.058 49.7797 158.895 49.8757L158.977 50.8723ZM151.366 50.6331C146.805 51.1471 142.515 51.7595 139.466 52.6171C137.949 53.0439 136.687 53.545 135.851 54.1583C135.43 54.4673 135.088 54.8253 134.89 55.2453C134.685 55.678 134.648 56.1458 134.789 56.6263L135.749 56.3437C135.675 56.0945 135.696 55.8797 135.794 55.6727C135.898 55.4529 136.103 55.2141 136.443 54.9645C137.129 54.4607 138.249 53.9983 139.737 53.5797C142.699 52.7465 146.915 52.1409 151.478 51.6269L151.366 50.6331ZM134.791 56.6321C135.744 59.7273 139.434 61.4942 143.096 60.957C146.831 60.4089 150.586 57.4973 151.911 51.2335L150.933 51.0265C149.682 56.9357 146.219 59.4881 142.95 59.9675C139.609 60.4578 136.51 58.8157 135.747 56.3379L134.791 56.6321ZM118.705 45.4187C118.861 45.4272 118.94 45.5202 118.95 45.5328C118.961 45.5458 118.948 45.5335 118.924 45.4677C118.878 45.3399 118.83 45.1226 118.789 44.8063C118.708 44.1824 118.667 43.2777 118.673 42.1814C118.684 39.9939 118.881 37.1041 119.285 34.3014L118.295 34.1586C117.884 37.0059 117.684 39.9416 117.673 42.1763C117.667 43.2911 117.708 44.2467 117.797 44.935C117.841 45.2749 117.901 45.5765 117.983 45.8061C118.024 45.919 118.08 46.0449 118.166 46.1527C118.25 46.2599 118.409 46.4042 118.651 46.4173L118.705 45.4187ZM121.178 44.1711C120.948 44.5924 120.436 44.9187 119.856 45.1398C119.578 45.2461 119.307 45.3191 119.088 45.3641C118.979 45.3865 118.886 45.4013 118.815 45.4099C118.736 45.4193 118.704 45.4186 118.706 45.4188L118.65 46.4172C118.802 46.4259 119.041 46.3946 119.29 46.3436C119.554 46.2891 119.878 46.2019 120.213 46.0742C120.86 45.8273 121.651 45.3906 122.056 44.6509L121.178 44.1711ZM122.919 39.9681C122.32 41.5939 121.766 43.0933 121.178 44.1716L122.056 44.6504C122.687 43.4934 123.267 41.9148 123.857 40.3139L122.919 39.9681ZM122.914 39.9828L122.914 39.9829L123.863 40.2991L123.863 40.299L122.914 39.9828ZM122.914 39.9827L122.914 39.9828L123.863 40.299L123.863 40.299L122.914 39.9827ZM122.91 39.9937L122.91 39.9938L123.866 40.2879L123.866 40.2878L122.91 39.9937ZM122.911 39.9937L122.91 39.9937L123.866 40.2878L123.866 40.2878L122.911 39.9937ZM122.928 39.9466L122.928 39.9467L123.849 40.3347L123.849 40.3346L122.928 39.9466ZM122.918 39.9719L122.918 39.972L123.859 40.3092L123.859 40.3091L122.918 39.9719ZM127.656 31.8787C126.511 32.4637 125.626 33.7332 124.894 35.1671C124.153 36.6197 123.516 38.3497 122.919 39.9676L123.858 40.3134C124.459 38.6815 125.075 37.0111 125.785 35.6218C126.504 34.2138 127.267 33.2 128.11 32.7693L127.656 31.8787ZM119.285 34.3015C119.514 32.7181 120.292 31.7755 121.276 31.2336C122.283 30.6786 123.547 30.5241 124.737 30.6245C125.934 30.7254 126.975 31.0767 127.523 31.4466C127.819 31.6464 127.854 31.7707 127.854 31.7682C127.842 31.6787 127.937 31.735 127.656 31.8787L128.11 32.7693C128.539 32.5502 128.915 32.1769 128.845 31.6402C128.787 31.1906 128.427 30.8503 128.082 30.6177C127.349 30.1229 126.127 29.7381 124.821 29.628C123.509 29.5174 122.029 29.677 120.793 30.3577C119.534 31.0517 118.569 32.2664 118.295 34.1585L119.285 34.3015ZM17.1754 51.7517C16.6699 55.5316 16.6813 58.4805 17.1287 60.6938C17.5763 62.9077 18.473 64.44 19.7823 65.2907C21.0934 66.1425 22.7158 66.2445 24.4696 65.8192C26.2216 65.3944 28.1559 64.4332 30.1625 63.0806L29.6035 62.2514C27.6506 63.5678 25.8278 64.4609 24.234 64.8474C22.6421 65.2334 21.3301 65.1037 20.3272 64.4521C19.3225 63.7994 18.5256 62.5567 18.1089 60.4957C17.6921 58.434 17.6686 55.6079 18.1666 51.8843L17.1754 51.7517ZM14.8946 42.7374C15.4134 42.2412 15.8738 41.9807 16.2205 41.9369C16.3794 41.9169 16.5098 41.9423 16.6266 42.009C16.7482 42.0785 16.8904 42.2133 17.0307 42.4689C17.3188 42.994 17.5469 43.9336 17.6009 45.4678C17.6545 46.9886 17.5358 49.0416 17.1754 51.7521L18.1666 51.8839C18.5312 49.1424 18.6565 47.0293 18.6003 45.4326C18.5446 43.8493 18.3092 42.7202 17.9073 41.9878C17.7026 41.6147 17.4431 41.3237 17.1225 41.1406C16.7969 40.9547 16.4443 40.9007 16.0952 40.9448C15.4262 41.0293 14.7716 41.4713 14.2034 42.0146L14.8946 42.7374ZM10.365 58.7922C10.3927 55.4872 10.8473 52.102 11.6431 49.218C12.4439 46.3157 13.5706 43.9924 14.893 42.7389L14.205 42.0131C12.6824 43.4566 11.4951 45.9948 10.6791 48.952C9.85815 51.9274 9.39335 55.3998 9.36502 58.7838L10.365 58.7922ZM11.3528 63.4378C10.9461 61.8782 10.6144 60.3 10.3587 58.7087L9.37133 58.8673C9.63209 60.4902 9.97043 62.0997 10.3852 63.6902L11.3528 63.4378ZM2.59469 64.9748C4.28001 66.2408 6.51885 66.3893 8.25732 66.0347C9.13033 65.8566 9.92086 65.5436 10.4856 65.1407C11.0219 64.7581 11.5045 64.1744 11.3588 63.4636L10.3792 63.6644C10.4005 63.7686 10.3532 64.0068 9.90489 64.3266C9.48508 64.6261 8.8363 64.8959 8.05743 65.0548C6.49215 65.3742 4.57699 65.2132 3.19531 64.1752L2.59469 64.9748ZM0.5 45.131C0.5 50.509 0.709597 55.1911 1.05322 58.6335C1.22486 60.353 1.43107 61.7749 1.6645 62.8238C1.78098 63.3471 1.90724 63.7915 2.04508 64.1388C2.17324 64.4618 2.344 64.7888 2.59707 64.9765L3.19293 64.1735C3.19648 64.1761 3.17065 64.1566 3.1245 64.082C3.08047 64.0109 3.02968 63.9088 2.97455 63.7699C2.86411 63.4917 2.7514 63.1043 2.64062 62.6065C2.41956 61.6133 2.21814 60.2358 2.04828 58.5342C1.7089 55.1344 1.5 50.487 1.5 45.131H0.5ZM3.10219 29.4726C2.7795 29.5579 2.55751 29.8231 2.40804 30.0585C2.24544 30.3146 2.09789 30.6496 1.96237 31.0406C1.69011 31.8261 1.43889 32.9191 1.22416 34.2605C0.793875 36.9485 0.5 40.6995 0.5 45.131H1.5C1.5 40.7385 1.79163 37.042 2.21159 34.4185C2.42199 33.1042 2.66207 32.0754 2.90722 31.3681C3.0304 31.0127 3.14809 30.7585 3.25223 30.5945C3.36949 30.4099 3.41575 30.4241 3.35781 30.4394L3.10219 29.4726ZM11.2968 38.0631C11.7342 36.3851 11.9894 34.8735 11.9867 33.5825C11.9839 32.2944 11.7242 31.1736 11.077 30.3325C10.4191 29.4777 9.41888 28.9863 8.09702 28.8486C6.78747 28.7122 5.13397 28.9182 3.09837 29.4736L3.36163 30.4384C5.34053 29.8983 6.85828 29.725 7.99342 29.8432C9.11624 29.9602 9.83415 30.3573 10.2845 30.9425C10.7455 31.5414 10.9842 32.4121 10.9867 33.5846C10.9891 34.7542 10.7563 36.1724 10.3292 37.8109L11.2968 38.0631ZM9.91599 45.9058C10.1542 43.2579 10.6159 40.635 11.2963 38.065L10.3297 37.809C9.63481 40.4336 9.16325 43.1122 8.92001 45.8162L9.91599 45.9058ZM15.9582 35.2626C13.0788 37.0417 10.6316 40.9968 8.94736 45.6922L9.88864 46.0298C11.5504 41.3972 13.8992 37.7103 16.4838 36.1134L15.9582 35.2626ZM29.1511 42.5516C29.7473 37.8296 28.4919 34.6748 25.8755 33.4115C23.3128 32.1741 19.7133 32.901 15.9548 35.2647L16.4872 36.1113C20.1447 33.811 23.3477 33.3014 25.4407 34.312C27.4801 35.2967 28.7337 37.8744 28.1589 42.4264L29.1511 42.5516ZM27.9717 59.619C27.7581 59.7737 27.6423 59.8214 27.5968 59.8298C27.5856 59.8318 27.6099 59.8255 27.6492 59.8409C27.69 59.8569 27.7047 59.8797 27.6992 59.8719C27.6731 59.835 27.6118 59.6995 27.5718 59.3573C27.5339 59.032 27.5211 58.5808 27.5382 57.9726C27.607 55.5292 28.1462 50.8527 29.1514 42.5491L28.1586 42.4289C27.1568 50.7053 26.609 55.4423 26.5386 57.9444C26.5209 58.5726 26.5325 59.0785 26.5786 59.4733C26.6227 59.8511 26.7052 60.1985 26.883 60.4496C26.9794 60.5859 27.1111 60.7039 27.2839 60.7718C27.4552 60.839 27.6266 60.841 27.7776 60.8133C28.0567 60.762 28.3259 60.5973 28.5583 60.429L27.9717 59.619ZM30.1644 63.0793C31.3822 62.2501 31.6461 60.9193 31.1197 59.9832C30.8582 59.5181 30.4049 59.1704 29.825 59.0812C29.2484 58.9924 28.6112 59.1678 27.9768 59.6154L28.5532 60.4326C29.0343 60.0932 29.4148 60.0298 29.6729 60.0695C29.9278 60.1087 30.1262 60.2567 30.2481 60.4733C30.4884 60.9007 30.4458 61.6779 29.6016 62.2527L30.1644 63.0793ZM55.5579 60.3252C54.5524 61.9358 52.7178 63.1726 50.43 63.93C48.1482 64.6853 45.4615 64.9471 42.8228 64.6452L42.7092 65.6388C45.4805 65.9559 48.3143 65.6837 50.7443 64.8793C53.1682 64.0769 55.2366 62.7281 56.4061 60.8548L55.5579 60.3252ZM54.569 59.349C55.0724 58.7884 55.5115 58.4606 55.8398 58.3076C56.1926 58.1431 56.2851 58.2304 56.2647 58.2144C56.2474 58.2008 56.3587 58.2796 56.2848 58.6903C56.2159 59.0735 55.9993 59.6235 55.5588 60.3237L56.4052 60.8563C56.8842 60.095 57.1691 59.4223 57.269 58.8674C57.3639 58.3401 57.3114 57.7653 56.8828 57.4283C56.4512 57.0889 55.885 57.1831 55.4172 57.4013C54.9248 57.6308 54.3811 58.0616 53.825 58.681L54.569 59.349ZM42.6902 56.8315C43.6958 59.4968 45.4289 61.5272 47.5939 62.1718C49.8017 62.8292 52.2636 61.9937 54.5739 59.3436L53.8201 58.6864C51.6704 61.1523 49.5883 61.7223 47.8793 61.2134C46.1276 60.6918 44.5712 58.9842 43.6258 56.4785L42.6902 56.8315ZM43.5013 56.0128L42.9993 56.1808L43.3167 57.1292L43.8187 56.9612L43.5013 56.0128ZM54.8369 36.9751C56.5571 39.6413 56.105 43.426 53.9605 47.1022C51.8272 50.7591 48.08 54.1818 43.4744 56.0227L43.8456 56.9513C48.662 55.0262 52.5808 51.4519 54.8243 47.6061C57.0565 43.7795 57.6919 39.5557 55.6771 36.4329L54.8369 36.9751ZM32.5531 47.1333C33.5205 41.7447 37.8937 37.2802 42.6913 35.144C47.5193 32.9942 52.4759 33.3027 54.8364 36.9744L55.6776 36.4336C52.9071 32.1243 47.2697 32.0108 42.2845 34.2305C37.2688 36.4638 32.6095 41.1603 31.5689 46.9566L32.5531 47.1333ZM42.8201 64.6449C39.0897 64.2392 36.0943 62.3803 34.2422 59.3919C32.3849 56.3949 31.6492 52.2137 32.5533 47.1326L31.5687 46.9574C30.6328 52.2173 31.3746 56.6631 33.3923 59.9186C35.4152 63.1827 38.6922 65.2018 42.7119 65.6391L42.8201 64.6449ZM48.1421 37.5322C48.4662 38.0503 48.6507 38.9846 48.6048 40.2396C48.5598 41.4739 48.2946 42.9453 47.7979 44.4748C46.8021 47.5414 44.9011 50.7657 42.0875 52.7644L42.6666 53.5796C45.7079 51.4193 47.7099 47.9836 48.7491 44.7837C49.2699 43.1799 49.5552 41.6165 49.6042 40.2761C49.6523 38.9564 49.4743 37.7762 48.9899 37.0018L48.1421 37.5322ZM42.8178 49.0699C43.3997 43.9864 44.5174 40.457 45.6632 38.5503C46.2462 37.5801 46.7805 37.1238 47.172 37.0043C47.3479 36.9505 47.4958 36.9635 47.6353 37.0296C47.7852 37.1007 47.9624 37.2518 48.145 37.5367L48.987 36.9973C48.7376 36.6079 48.4322 36.3008 48.0638 36.1261C47.685 35.9464 47.2788 35.926 46.8798 36.0479C46.1213 36.2796 45.4219 37.0104 44.8061 38.0352C43.5541 40.1185 42.4133 43.8106 41.8242 48.9561L42.8178 49.0699ZM42.8729 53.108C42.7115 51.8577 42.7103 50.4896 42.8196 49.0509L41.8224 48.9751C41.7097 50.4584 41.7085 51.8983 41.8811 53.236L42.8729 53.108ZM83.6693 45.7234C82.1193 48.1566 79.8984 49.9447 77.9695 50.5758L78.2805 51.5262C80.4776 50.8073 82.8687 48.8414 84.5127 46.2606L83.6693 45.7234ZM84.9529 42.8624C84.4516 44.4605 84.0956 45.0529 83.6691 45.7237L84.5129 46.2603C84.9804 45.5251 85.3764 44.8535 85.9071 43.1616L84.9529 42.8624ZM84.9674 42.7677C84.9403 42.8705 84.9148 42.9667 84.906 43.0071C84.905 43.0118 84.901 43.0301 84.898 43.052C84.8978 43.0536 84.8908 43.0979 84.8942 43.1526C84.8952 43.1693 84.8979 43.1997 84.9067 43.2368C84.9138 43.2669 84.9343 43.3441 84.9948 43.4239C85.0676 43.5199 85.2032 43.6211 85.391 43.622C85.5466 43.6227 85.6526 43.5524 85.692 43.523C85.7702 43.4649 85.8109 43.3974 85.8151 43.3907C85.8285 43.3698 85.8375 43.3523 85.8416 43.344C85.8503 43.3265 85.8563 43.312 85.8586 43.3064C85.8639 43.2932 85.8681 43.2813 85.8703 43.2751C85.8792 43.2498 85.892 43.2099 85.9071 43.1617L84.9529 42.8623C84.9368 42.9137 84.9291 42.9371 84.9268 42.9437C84.9262 42.9455 84.9282 42.9397 84.9318 42.9306C84.9333 42.9271 84.9385 42.9142 84.9467 42.8978C84.9505 42.8901 84.9592 42.873 84.9724 42.8524C84.9764 42.8461 85.017 42.7789 85.095 42.7208C85.1343 42.6915 85.2402 42.6212 85.3958 42.622C85.5835 42.6229 85.7191 42.724 85.7918 42.82C85.8522 42.8997 85.8728 42.9768 85.8798 43.0067C85.8886 43.0437 85.8912 43.074 85.8923 43.0906C85.8956 43.1446 85.8887 43.1878 85.8887 43.1878C85.8872 43.1992 85.8856 43.2078 85.885 43.2108C85.8842 43.2147 85.8837 43.2174 85.8835 43.2183C85.883 43.2203 85.8837 43.2172 85.8867 43.205C85.8894 43.1943 85.8931 43.1801 85.8977 43.1622C85.907 43.1263 85.9194 43.0795 85.9343 43.0229L84.9674 42.7677ZM85.3225 41.2214C85.2914 41.5333 85.0818 42.3345 84.9674 42.7677L85.9343 43.0229C86.0359 42.638 86.2764 41.7337 86.3175 41.3206L85.3225 41.2214ZM85.4864 40.5952C85.4275 40.7109 85.3885 40.864 85.3677 40.9549C85.3552 41.0091 85.3445 41.0627 85.3367 41.1091C85.3312 41.1415 85.32 41.2091 85.32 41.271H86.32C86.32 41.2958 86.3177 41.3101 86.3188 41.3013C86.3192 41.2976 86.3204 41.2893 86.3226 41.2763C86.327 41.2505 86.3338 41.2159 86.3423 41.1786C86.3509 41.1411 86.3602 41.1056 86.369 41.077C86.3793 41.0434 86.3833 41.0376 86.3776 41.0488L85.4864 40.5952ZM77.2883 33.4564C80.0967 32.0546 82.3826 32.3376 83.821 33.6211C85.2818 34.9246 86.0349 37.4027 85.4398 40.7341L86.4242 40.9099C87.0541 37.3843 86.3017 34.4944 84.4868 32.8749C82.6494 31.2354 79.8893 31.0404 76.8417 32.5616L77.2883 33.4564ZM67.7224 47.6822C68.9363 44.3724 70.5495 41.1907 72.2607 38.641C73.9841 36.073 75.7637 34.2115 77.2869 33.4571L76.8431 32.5609C75.0773 33.4355 73.1774 35.4805 71.4303 38.0837C69.671 40.7053 68.0227 43.9595 66.7836 47.3378L67.7224 47.6822ZM69.6237 36.947C68.4495 40.329 67.38 43.7875 66.7601 47.426L67.7459 47.594C68.352 44.0365 69.4005 40.639 70.5683 37.275L69.6237 36.947ZM62.0872 30.3445C65.226 29.4912 67.5562 29.8515 68.8558 30.977C70.1237 32.075 70.5924 34.0715 69.6222 36.9514L70.5698 37.2706C71.6066 34.1935 71.2113 31.694 69.5104 30.221C67.8413 28.7755 65.098 28.4898 61.8248 29.3795L62.0872 30.3445ZM59.445 46.779C59.445 42.401 59.9293 38.275 60.5432 35.2152C60.8505 33.6838 61.1878 32.4319 61.5081 31.5543C61.6689 31.1136 61.8194 30.7841 61.9509 30.5651C62.0168 30.4554 62.0697 30.3873 62.1065 30.3494C62.1478 30.3067 62.1415 30.3301 62.0841 30.3453L61.8279 29.3787C61.638 29.429 61.4922 29.5463 61.3885 29.6533C61.2802 29.765 61.1826 29.9022 61.0937 30.0502C60.9156 30.3467 60.7398 30.7426 60.5686 31.2116C60.2249 32.1535 59.8757 33.4588 59.5628 35.0185C58.9362 38.141 58.445 42.333 58.445 46.779H59.445ZM60.8605 64.0819C60.8326 64.0611 60.7512 63.974 60.6462 63.7352C60.5466 63.5084 60.4462 63.1927 60.3494 62.7796C60.1559 61.9545 59.9894 60.7989 59.8543 59.3154C59.5845 56.352 59.445 52.1405 59.445 46.779H58.445C58.445 52.1515 58.5845 56.398 58.8584 59.4061C58.9952 60.9083 59.1668 62.1168 59.3758 63.0079C59.4801 63.4529 59.5971 63.8334 59.7307 64.1374C59.859 64.4294 60.0267 64.7079 60.2635 64.8841L60.8605 64.0819ZM68.0636 63.6938C68.0846 63.753 68.102 63.9498 67.6627 64.2669C67.2564 64.5602 66.6033 64.8305 65.8087 64.99C64.2116 65.3107 62.245 65.1475 60.867 64.0868L60.257 64.8792C61.945 66.1785 64.2434 66.3243 66.0056 65.9705C66.8906 65.7928 67.6907 65.4799 68.248 65.0777C68.7724 64.6992 69.2639 64.088 69.0064 63.3602L68.0636 63.6938ZM67.5102 61.8616C67.6721 62.4568 67.8407 63.0769 68.0648 63.697L69.0052 63.357C68.7971 62.7813 68.6386 62.2 68.4751 61.599L67.5102 61.8616ZM67.4946 61.8044L67.5102 61.8617L68.475 61.5989L68.4594 61.5416L67.4946 61.8044ZM67.4468 61.3226C67.4731 61.4029 67.477 61.4925 67.477 61.673H68.477C68.477 61.5155 68.4809 61.2671 68.3972 61.0114L67.4468 61.3226ZM73.9722 41.5504C73.0667 42.2505 72.1472 43.3978 71.2969 44.8008C70.4421 46.2111 69.639 47.9099 68.9775 49.7423C67.6582 53.3966 66.8801 57.6442 67.4277 61.2422L68.4163 61.0918C67.9029 57.7188 68.6303 53.6489 69.918 50.0819C70.56 48.3038 71.3357 46.666 72.1521 45.3191C72.9729 43.9649 73.8168 42.9345 74.5838 42.3416L73.9722 41.5504ZM77.0621 43.5882C76.9704 42.5458 76.5792 41.7623 75.9572 41.3741C75.3091 40.9696 74.5466 41.0794 73.9611 41.5593L74.5949 42.3327C74.9014 42.0816 75.1979 42.0789 75.4278 42.2224C75.6838 42.3822 75.9896 42.8072 76.0659 43.6758L77.0621 43.5882ZM73.44 48.353C73.44 47.5413 74.2158 45.3491 76.7854 44.0803L76.3426 43.1837C73.4482 44.6129 72.44 47.1427 72.44 48.353H73.44ZM77.9794 50.5727C76.859 50.9137 75.6883 50.9119 74.828 50.548C74.404 50.3686 74.0628 50.1053 73.8263 49.7578C73.5909 49.4118 73.44 48.9541 73.44 48.353H72.44C72.44 49.1289 72.6375 49.7882 72.9996 50.3203C73.3606 50.8509 73.866 51.2269 74.4385 51.469C75.5712 51.9481 76.993 51.9183 78.2706 51.5293L77.9794 50.5727Z" fill="black"/>
<path fill-rule="evenodd" clip-rule="evenodd" d="M114.207 27.161C113.726 29.6539 113.354 32.1666 113.092 34.692C112.033 44.752 112.48 53.688 113.705 57.678C114.431 59.815 117.162 62.624 119.783 59.701C122.626 56.498 125.75 58.352 121.957 62.117C119.617 64.422 115.268 65.995 110.918 65.545C107.795 65.152 105.9 63.13 104.784 60.04C104.34 60.938 103.837 61.725 103.224 62.342C101.105 64.535 98.539 65.772 95.25 65.434C88.613 64.704 84.712 57.511 86.551 47.281C88.503 36.49 97.87 32.556 103.279 35.424C103.391 34.075 103.502 32.725 103.614 31.32C103.642 31.1795 103.655 31.039 103.669 30.8985C103.683 30.758 103.697 30.6175 103.724 30.477C102.079 30.8387 100.424 31.1575 98.762 31.433C74.787 35.423 83.04 15.864 88.894 10.75C95.53 5.017 96.254 8.895 94.191 10.188C90.511 12.548 88.894 26.093 99.432 26.093C101.161 26.093 102.778 25.981 104.394 25.812C107.685 7.49 117.665 -1.391 125.75 1.532C134.726 4.792 133.779 19.067 114.207 27.161ZM103.279 51.554C103.055 48.012 103.055 44.022 103.112 39.918C103.112 39.6576 103.127 39.3974 103.141 39.1449C103.155 38.9068 103.168 38.6754 103.168 38.457C99.822 36.939 96.533 42.11 95.695 49.249C94.749 57.622 98.483 62.062 100.603 60.04C102.22 58.409 103.056 53.237 103.279 51.554ZM127.365 8.389C125.581 5.747 119.058 8.951 115.267 22.721C124.802 18.167 128.593 10.299 127.365 8.389Z" fill="black"/>
<path d="M113.092 34.692L113.589 34.7443L113.589 34.7435L113.092 34.692ZM114.207 27.161L114.016 26.699L113.767 26.8018L113.716 27.0662L114.207 27.161ZM113.705 57.678L113.227 57.8247L113.229 57.8318L113.232 57.8388L113.705 57.678ZM119.783 59.701L120.155 60.0348L120.157 60.0329L119.783 59.701ZM121.957 62.117L122.308 62.4732L122.309 62.4719L121.957 62.117ZM110.918 65.545L110.856 66.0412L110.867 66.0423L110.918 65.545ZM104.784 60.04L105.254 59.8702L104.856 58.7667L104.336 59.8184L104.784 60.04ZM103.224 62.342L102.869 61.9896L102.864 61.9946L103.224 62.342ZM95.25 65.434L95.1953 65.931L95.1989 65.9314L95.25 65.434ZM86.551 47.281L86.059 47.192L86.0589 47.1925L86.551 47.281ZM103.279 35.424L103.045 35.8657L103.715 36.2209L103.777 35.4654L103.279 35.424ZM103.614 31.32L103.123 31.224L103.118 31.2519L103.116 31.2803L103.614 31.32ZM103.724 30.477L104.215 30.573L104.361 29.825L103.617 29.9887L103.724 30.477ZM98.762 31.433L98.6802 30.9397L98.6799 30.9398L98.762 31.433ZM88.894 10.75L88.5671 10.3716L88.5651 10.3734L88.894 10.75ZM94.191 10.188L93.9255 9.76431L93.9211 9.76711L94.191 10.188ZM104.394 25.812L104.446 26.3093L104.82 26.2702L104.886 25.9004L104.394 25.812ZM125.75 1.532L125.921 1.06203L125.92 1.06179L125.75 1.532ZM103.112 39.918L103.612 39.9249V39.918H103.112ZM103.279 51.554L103.775 51.6197L103.781 51.5712L103.778 51.5224L103.279 51.554ZM103.141 39.1449L103.64 39.1734L103.64 39.1734L103.141 39.1449ZM103.168 38.457H103.668V38.1348L103.375 38.0017L103.168 38.457ZM95.695 49.249L95.1984 49.1907L95.1982 49.1929L95.695 49.249ZM100.603 60.04L100.948 60.402L100.958 60.392L100.603 60.04ZM127.365 8.389L127.786 8.11853L127.779 8.10919L127.365 8.389ZM115.267 22.721L114.785 22.5883L114.494 23.6442L115.482 23.1722L115.267 22.721ZM113.589 34.7435C113.849 32.2326 114.219 29.7343 114.698 27.2558L113.716 27.0662C113.232 29.5734 112.858 32.1006 112.595 34.6405L113.589 34.7435ZM114.183 57.5312C113.59 55.6 113.174 52.421 113.042 48.4447C112.91 44.4788 113.062 39.7529 113.589 34.7443L112.595 34.6397C112.063 39.6911 111.909 44.4632 112.042 48.4778C112.175 52.482 112.595 55.766 113.227 57.8247L114.183 57.5312ZM119.411 59.3672C118.811 60.0357 118.243 60.3362 117.741 60.4264C117.24 60.5166 116.746 60.4074 116.274 60.1486C115.307 59.6184 114.511 58.4973 114.178 57.5172L113.232 57.8388C113.625 58.9957 114.557 60.3476 115.793 61.0254C116.422 61.3706 117.148 61.5492 117.918 61.4107C118.688 61.2723 119.444 60.8278 120.155 60.0348L119.411 59.3672ZM122.309 62.4719C123.289 61.4993 123.867 60.6079 124.096 59.8445C124.326 59.0796 124.22 58.348 123.672 57.9067C123.153 57.4879 122.409 57.4787 121.693 57.7249C120.96 57.9769 120.163 58.5199 119.409 59.3691L120.157 60.0329C120.825 59.2806 121.484 58.8542 122.018 58.6706C122.569 58.4813 122.902 58.5703 123.045 58.6853C123.159 58.7777 123.301 59.0154 123.138 59.557C122.975 60.1 122.521 60.8522 121.605 61.7621L122.309 62.4719ZM110.867 66.0423C115.348 66.5059 119.85 64.8946 122.308 62.4732L121.606 61.7608C119.384 63.9494 115.188 65.4841 110.969 65.0477L110.867 66.0423ZM104.314 60.2098C104.89 61.8044 105.679 63.1584 106.756 64.1686C107.84 65.1847 109.194 65.832 110.856 66.0411L110.98 65.0489C109.519 64.865 108.364 64.3048 107.44 63.4391C106.511 62.5676 105.794 61.3656 105.254 59.8702L104.314 60.2098ZM103.579 62.6944C104.243 62.0254 104.775 61.1868 105.232 60.2616L104.336 59.8184C103.905 60.6892 103.431 61.4246 102.869 61.9896L103.579 62.6944ZM95.1989 65.9314C98.6686 66.2879 101.379 64.9708 103.584 62.6894L102.864 61.9946C100.831 64.0992 98.4094 65.256 95.3011 64.9366L95.1989 65.9314ZM86.0589 47.1925C85.1261 52.3818 85.6389 56.8529 87.2743 60.1426C88.9161 63.4452 91.6885 65.5453 95.1953 65.931L95.3047 64.937C92.1745 64.5927 89.6779 62.7313 88.1697 59.6974C86.6551 56.6506 86.137 52.4102 87.0431 47.3695L86.0589 47.1925ZM103.513 34.9823C97.7165 31.9087 88.0521 36.1735 86.059 47.192L87.043 47.37C88.9539 36.8065 98.0235 33.2033 103.045 35.8657L103.513 34.9823ZM103.116 31.2803C103.004 32.6845 102.893 34.0339 102.781 35.3826L103.777 35.4654C103.889 34.1161 104 32.7655 104.112 31.3597L103.116 31.2803ZM103.171 30.8498C103.157 30.994 103.145 31.1108 103.123 31.224L104.105 31.416C104.138 31.2482 104.153 31.084 104.167 30.9472L103.171 30.8498ZM103.233 30.381C103.2 30.5488 103.185 30.713 103.171 30.8498L104.167 30.9472C104.181 30.803 104.193 30.6862 104.215 30.573L103.233 30.381ZM98.8438 31.9263C100.514 31.6493 102.177 31.3289 103.831 30.9653L103.617 29.9887C101.98 30.3485 100.334 30.6656 98.6802 30.9397L98.8438 31.9263ZM88.5651 10.3734C87.0393 11.7064 85.3892 13.9468 84.1459 16.48C82.9031 19.0122 82.0371 21.8971 82.1425 24.5255C82.2491 27.1799 83.3531 29.5911 86.045 31.0437C88.6955 32.474 92.808 32.9308 98.8441 31.9262L98.6799 30.9398C92.7285 31.9302 88.882 31.4384 86.5199 30.1637C84.1993 28.9114 83.2371 26.8614 83.1417 24.4854C83.0453 22.0836 83.8418 19.3693 85.0436 16.9206C86.2449 14.4729 87.8218 12.3506 89.223 11.1266L88.5651 10.3734ZM94.4565 10.6117C95.0724 10.2257 95.4978 9.63815 95.6508 9.04998C95.8024 8.46702 95.6966 7.7547 95.0458 7.39628C94.4573 7.07214 93.6168 7.16506 92.6115 7.60342C91.5785 8.05384 90.2457 8.92147 88.5671 10.3716L89.2209 11.1284C90.8603 9.71203 92.1065 8.91453 93.0112 8.52007C93.9435 8.11356 94.3993 8.18185 94.5634 8.27222C94.6653 8.3283 94.7684 8.46961 94.683 8.79827C94.5988 9.12173 94.3411 9.50383 93.9255 9.76433L94.4565 10.6117ZM99.432 25.593C96.9131 25.593 95.1741 24.7879 94.0081 23.5908C92.8322 22.3837 92.1933 20.7303 91.976 18.9644C91.7588 17.1991 91.9681 15.3568 92.4524 13.819C92.9433 12.2603 93.6867 11.1054 94.4609 10.6089L93.9211 9.76711C92.8554 10.4506 92.0166 11.8739 91.4986 13.5186C90.974 15.1842 90.7477 17.1706 90.9835 19.0866C91.2192 21.0019 91.9219 22.8823 93.2917 24.2886C94.6713 25.7049 96.6819 26.593 99.432 26.593V25.593ZM104.342 25.3147C102.738 25.4825 101.139 25.593 99.432 25.593V26.593C101.183 26.593 102.818 26.4795 104.446 26.3093L104.342 25.3147ZM125.92 1.06179C121.629 -0.48968 116.913 1.12644 112.911 5.36171C108.908 9.59716 105.559 16.4975 103.902 25.7236L104.886 25.9004C106.52 16.8045 109.806 10.1033 113.638 6.04854C117.469 1.99355 121.786 0.630677 125.58 2.00221L125.92 1.06179ZM114.398 27.623C124.264 23.543 129.54 17.8625 131.161 12.6831C131.973 10.0906 131.867 7.61934 130.941 5.568C130.014 3.51342 128.283 1.91983 125.921 1.06203L125.579 2.00196C127.705 2.77417 129.221 4.18745 130.03 5.97924C130.84 7.77429 130.957 9.9889 130.207 12.3844C128.705 17.181 123.722 22.685 114.016 26.699L114.398 27.623ZM102.612 39.9111C102.555 44.0169 102.555 48.0231 102.78 51.5856L103.778 51.5224C103.555 48.0009 103.555 44.0271 103.612 39.9249L102.612 39.9111ZM102.642 39.1164C102.628 39.3667 102.612 39.641 102.612 39.918H103.612C103.612 39.6742 103.626 39.4282 103.64 39.1734L102.642 39.1164ZM102.668 38.457C102.668 38.6586 102.656 38.8752 102.642 39.1164L103.64 39.1734C103.654 38.9383 103.668 38.6923 103.668 38.457H102.668ZM96.1916 49.3073C96.6047 45.788 97.6188 42.7948 98.9056 40.8861C99.5493 39.9313 100.239 39.2801 100.924 38.9491C101.591 38.6268 102.268 38.5978 102.961 38.9123L103.375 38.0017C102.395 37.5572 101.406 37.6053 100.489 38.0488C99.5899 38.4834 98.778 39.2866 98.0764 40.3271C96.6727 42.4092 95.6233 45.571 95.1984 49.1907L96.1916 49.3073ZM100.258 59.6782C99.8726 60.0457 99.4526 60.1101 99.0003 59.9225C98.5086 59.7186 97.9446 59.1955 97.4341 58.2959C96.4199 56.5084 95.7271 53.4186 96.1918 49.3051L95.1982 49.1929C94.7169 53.4524 95.4181 56.7691 96.5644 58.7894C97.1342 59.7936 97.842 60.5247 98.6172 60.8462C99.4317 61.1841 100.273 61.0453 100.948 60.4018L100.258 59.6782ZM102.783 51.4883C102.673 52.3195 102.412 54.0116 101.98 55.692C101.763 56.5324 101.507 57.3594 101.211 58.07C100.91 58.7895 100.585 59.3484 100.248 59.688L100.958 60.392C101.43 59.9161 101.815 59.2169 102.133 58.4553C102.455 57.6848 102.725 56.8079 102.948 55.941C103.394 54.2069 103.662 52.4715 103.775 51.6197L102.783 51.4883ZM127.779 8.10919C127.207 7.26222 126.258 6.91457 125.178 7.08337C124.122 7.24843 122.932 7.9007 121.726 9.0365C119.308 11.3136 116.694 15.6524 114.785 22.5883L115.749 22.8537C117.631 16.0196 120.174 11.8714 122.411 9.7645C123.533 8.7083 124.546 8.19431 125.332 8.07138C126.095 7.95218 126.631 8.19478 126.951 8.66881L127.779 8.10919ZM115.482 23.1722C120.327 20.8586 123.724 17.6977 125.759 14.8545C126.775 13.4345 127.46 12.0816 127.811 10.9409C127.987 10.3709 128.083 9.8401 128.089 9.37227C128.094 8.90967 128.011 8.4691 127.786 8.1186L126.944 8.6594C127.026 8.7864 127.093 9.00952 127.089 9.36057C127.085 9.7064 127.012 10.1393 126.856 10.6466C126.544 11.6607 125.915 12.9175 124.946 14.2725C123.008 16.9793 119.742 20.0294 115.052 22.2698L115.482 23.1722Z" fill="black"/>
</svg>
